<?xml version="1.0" encoding="UTF-8"?>
<svg id="Layer_1" xmlns="http://www.w3.org/2000/svg" version="1.1" viewBox="0 0 404.73 343.01">
  <!-- Generator: Adobe Illustrator 29.8.3, SVG Export Plug-In . SVG Version: 2.1.1 Build 3)  -->
  <defs>
    <style>
      .st0 {
        fill: #fff;
      }
    </style>
  </defs>
  <g>
    <g id="_0RkitC.tif">
      <path class="st0" d="M344.62,180.86c-.82,2.86-7.49,2.28-9.55,2.75-.59.13-.49,1.28-1.62,1.65-36.96,12.02-73.72,24.79-110.9,35.95-9.58,2.88-14.01,7.5-24.66,4.53-37.92-10.56-77.24-25.54-114.79-38.3-5.04-1.71-13.76-3.05-18.09-5.23-4.84-2.44-1.67-10.73-1.73-14.59-.7-43.64-.35-87.84-.84-131.18-.02-1.88-.13-14.21,1.23-14.43,24.62,5.62,48.14,14.9,71.66,23.92,18.75,7.19,35.37,13.18,52.25,24.68,6.54,4.46,10.76,11.6,16.73,16.71,7-5.03,11.49-12.11,18.69-17.11,24.82-17.21,53.23-25.33,81.34-35.21,3.23-1.14,6.08-2.77,8.23-3.58,10.26-3.86,21.45-6.45,32.04-9.38v158.82h0ZM332.97,172.32V37.58c-22.42,7.68-45.31,14.25-67.24,23.29-21.13,8.71-37.08,16.4-52.85,33.39-4.52,4.87-5.79,12.52-12.83,5.08-3.97-4.19-6.01-8.09-10.85-12.46-13.14-11.85-28.87-18.85-45.11-25.6-22.27-9.26-45.54-16.02-68.38-23.7-.11,2.24-.69,4.3-.82,6.57-2.27,41.47,1.81,84.98,0,126.67-.03.91.05,1.67.81,2.3.4.33,8.28,3.05,9.7,3.51,23.8,7.86,48.03,15.18,71.77,23.03,15.52,5.13,30.81,10.89,46.39,15.84,37.66-11.61,74.91-25.34,112.48-37.58,5.36-1.75,12.18-1.77,16.94-5.59h0Z"/>
    </g>
    <path class="st0" d="M194.6,179.7c-30.43-18.89-63.07-33.84-95.08-49.83-3.18-1.79-2.85-5.1.83-5.91,4.8-1.07,19.68,4.52,25.07,6.44,17.71,6.32,37,15.41,52.36,26.12,7.81,5.45,16.26,13.12,16.82,23.18h0Z"/>
    <path class="st0" d="M106.48,85.28c20.89,7.07,76.09,28.19,86.22,48.57.67,1.36,3.33,6.99,0,6.24-.46-.1-6.22-4.64-7.75-5.46-4.21-2.27-8.68-4.77-12.66-6.94-23.99-13.09-49.25-23.63-73.22-36.95-3.87-2.15-.13-6.18,2.71-6.58,1.73-.25,3.19.61,4.72,1.13h-.02Z"/>
    <path class="st0" d="M215.61,178.15c-.16-2.4.38-4.68,1.25-6.9,7.13-18.14,55.85-38.26,73.99-44.16,2.84-.92,9.56-2.97,12.28-3.21,11.61-1.05,6.24,5.76-.21,9.1-16.93,8.77-35.45,15.64-52.36,24.57-11.93,6.3-23.05,14.24-34.95,20.59h0Z"/>
    <path class="st0" d="M302.94,93.02c-20.98,13.4-45.51,23.63-67.68,36.05-6.6,3.7-13.61,6.46-19.66,11.02,1.14-15.01,18.06-23.87,29.78-30.42,20.34-11.37,33.91-17.52,56.72-22.41.62-.13,3.08-4.38,6.34-.71,3.57,4.02-2.82,4.76-5.5,6.47Z"/>
  </g>
  <g>
    <path class="st0" d="M15.46,295.55v-34.92h13.62c2.66,0,4.91.5,6.77,1.51s3.28,2.4,4.25,4.17,1.46,3.81,1.46,6.11-.5,4.35-1.49,6.11-2.43,3.13-4.31,4.12-4.17,1.49-6.86,1.49h-8.77v-5.77h7.62c1.47,0,2.68-.25,3.62-.76s1.65-1.21,2.11-2.1.69-1.92.69-3.09-.23-2.2-.69-3.08-1.17-1.57-2.12-2.06-2.16-.74-3.63-.74h-5.13v29.02h-7.15Z"/>
    <path class="st0" d="M46.4,295.55v-26.2h6.8v4.57h.28c.48-1.62,1.29-2.85,2.43-3.68s2.43-1.24,3.9-1.24c.36,0,.75.02,1.17.06s.79.1,1.1.18v6.28c-.31-.11-.77-.2-1.36-.26s-1.16-.09-1.69-.09c-1.06,0-2.02.23-2.88.69s-1.53,1.1-2,1.92-.71,1.78-.71,2.87v14.91h-7.03Z"/>
    <path class="st0" d="M76.61,296.06c-2.67,0-4.98-.55-6.91-1.64s-3.43-2.65-4.46-4.66-1.56-4.41-1.56-7.17.52-5.07,1.55-7.1,2.49-3.62,4.38-4.76,4.11-1.71,6.66-1.71c1.72,0,3.32.27,4.8.82s2.79,1.37,3.91,2.47,2,2.48,2.64,4.14.95,3.61.95,5.86v1.97h-22.01v-4.41h18.56l-3.28,1.17c0-1.36-.21-2.54-.62-3.55s-1.03-1.79-1.85-2.34-1.83-.83-3.04-.83-2.25.28-3.11.84-1.5,1.32-1.93,2.29-.66,2.06-.66,3.29v3.12c0,1.52.25,2.79.76,3.82s1.22,1.8,2.13,2.32,1.98.77,3.2.77c.83,0,1.58-.12,2.25-.35s1.25-.58,1.72-1.04.84-1.03,1.09-1.7l6.38,1.2c-.42,1.44-1.16,2.7-2.2,3.79s-2.36,1.93-3.93,2.52-3.38.89-5.43.89Z"/>
    <path class="st0" d="M93.37,305.34v-36h6.91v4.41h.33c.33-.69.79-1.4,1.39-2.13s1.39-1.35,2.38-1.85,2.22-.75,3.7-.75c1.94,0,3.71.5,5.32,1.5s2.89,2.5,3.86,4.5,1.44,4.49,1.44,7.48-.47,5.36-1.41,7.37-2.21,3.53-3.82,4.57-3.42,1.56-5.44,1.56c-1.42,0-2.62-.24-3.61-.73s-1.79-1.08-2.4-1.79-1.09-1.42-1.42-2.12h-.21v13.99h-7.03ZM105.89,290.34c1.22,0,2.25-.34,3.08-1.01s1.47-1.6,1.9-2.79.64-2.55.64-4.08-.21-2.88-.64-4.05-1.06-2.09-1.89-2.77-1.86-1.01-3.09-1.01-2.23.32-3.07.97-1.48,1.55-1.92,2.72-.66,2.54-.66,4.14.22,2.96.67,4.14,1.09,2.1,1.93,2.75,1.86.98,3.05.98Z"/>
    <path class="st0" d="M145.57,296.06c-2.41,0-4.48-.44-6.23-1.31s-3.09-2.05-4.03-3.52-1.41-3.1-1.41-4.9c0-1.41.28-2.64.83-3.7s1.33-2.04,2.32-2.94,2.14-1.79,3.43-2.68l6.66-4.41c.48-.31.92-.67,1.31-1.07s.7-.83.93-1.29.34-.96.34-1.49c0-.8-.28-1.48-.84-2.04s-1.37-.84-2.41-.84c-.69,0-1.29.13-1.8.4s-.91.64-1.2,1.12-.42,1.05-.42,1.71c0,.77.19,1.53.57,2.29s.91,1.55,1.58,2.38,1.45,1.75,2.32,2.77l16.52,19.01h-7.41l-13.76-15.4c-.95-1.11-1.88-2.23-2.79-3.35s-1.66-2.32-2.25-3.6-.89-2.66-.89-4.16c0-1.67.39-3.18,1.18-4.51s1.89-2.39,3.32-3.16,3.08-1.16,4.97-1.16,3.46.37,4.8,1.11,2.38,1.73,3.12,2.98,1.1,2.62,1.1,4.14c0,1.08-.19,2.09-.57,3.05s-.92,1.84-1.61,2.65-1.51,1.57-2.46,2.27l-7.12,5.13c-.95.7-1.68,1.4-2.17,2.1s-.74,1.5-.74,2.43.21,1.64.63,2.3,1.01,1.16,1.76,1.51,1.62.53,2.62.53c1.28,0,2.53-.28,3.74-.84s2.31-1.36,3.3-2.4,1.78-2.28,2.37-3.73.88-3.04.88-4.79h5.88c0,2.16-.23,4.08-.7,5.78s-1.11,3.16-1.92,4.39-1.73,2.24-2.77,3.02l-1.8,1.17c-1.28,1.05-2.74,1.82-4.38,2.32s-3.24.75-4.8.75Z"/>
    <path class="st0" d="M178.78,295.55v-34.92h13.62c2.66,0,4.91.5,6.77,1.51s3.28,2.4,4.25,4.17,1.46,3.81,1.46,6.11-.5,4.35-1.49,6.11-2.43,3.13-4.31,4.12-4.17,1.49-6.86,1.49h-8.77v-5.77h7.62c1.47,0,2.68-.25,3.62-.76s1.65-1.21,2.11-2.1.69-1.92.69-3.09-.23-2.2-.69-3.08-1.17-1.57-2.12-2.06-2.16-.74-3.63-.74h-5.13v29.02h-7.15Z"/>
    <path class="st0" d="M209.71,295.55v-26.2h6.8v4.57h.28c.48-1.62,1.29-2.85,2.43-3.68s2.43-1.24,3.9-1.24c.36,0,.75.02,1.17.06s.79.1,1.1.18v6.28c-.31-.11-.77-.2-1.36-.26s-1.16-.09-1.69-.09c-1.06,0-2.02.23-2.88.69s-1.53,1.1-2,1.92-.71,1.78-.71,2.87v14.91h-7.03Z"/>
    <path class="st0" d="M239.93,296.06c-2.67,0-4.98-.55-6.91-1.64s-3.43-2.65-4.46-4.66-1.56-4.41-1.56-7.17.52-5.07,1.55-7.1,2.49-3.62,4.38-4.76,4.11-1.71,6.66-1.71c1.72,0,3.32.27,4.8.82s2.79,1.37,3.91,2.47,2,2.48,2.64,4.14.95,3.61.95,5.86v1.97h-22.01v-4.41h18.56l-3.28,1.17c0-1.36-.21-2.54-.62-3.55s-1.03-1.79-1.85-2.34-1.83-.83-3.04-.83-2.25.28-3.11.84-1.5,1.32-1.93,2.29-.66,2.06-.66,3.29v3.12c0,1.52.25,2.79.76,3.82s1.22,1.8,2.13,2.32,1.98.77,3.2.77c.83,0,1.58-.12,2.25-.35s1.25-.58,1.72-1.04.84-1.03,1.09-1.7l6.38,1.2c-.42,1.44-1.16,2.7-2.2,3.79s-2.36,1.93-3.93,2.52-3.38.89-5.43.89Z"/>
    <path class="st0" d="M267.09,296.06c-2.11,0-3.98-.3-5.6-.9s-2.95-1.48-3.98-2.62-1.7-2.54-1.99-4.16l6.54-1.12c.34,1.22.95,2.13,1.8,2.74s2.01.91,3.45.91c1.34,0,2.4-.25,3.18-.76s1.16-1.15,1.16-1.93c0-.69-.28-1.25-.83-1.69s-1.4-.77-2.54-1.01l-4.52-.94c-2.53-.52-4.42-1.39-5.67-2.64s-1.88-2.84-1.88-4.79c0-1.69.46-3.14,1.38-4.35s2.2-2.14,3.84-2.8,3.57-.98,5.79-.98c2.06,0,3.85.29,5.37.86s2.74,1.38,3.68,2.43,1.56,2.28,1.88,3.7l-6.23,1.1c-.27-.89-.78-1.62-1.54-2.19s-1.78-.86-3.06-.86c-1.16,0-2.12.24-2.91.73s-1.17,1.13-1.17,1.95c0,.66.25,1.21.76,1.66s1.38.8,2.61,1.05l4.71.94c2.53.52,4.41,1.36,5.65,2.52s1.85,2.68,1.85,4.56c0,1.72-.5,3.22-1.5,4.51s-2.38,2.29-4.14,3.01-3.79,1.08-6.08,1.08Z"/>
    <path class="st0" d="M295.4,296.06c-2.67,0-4.98-.55-6.91-1.64s-3.43-2.65-4.46-4.66-1.56-4.41-1.56-7.17.52-5.07,1.55-7.1,2.49-3.62,4.38-4.76,4.11-1.71,6.66-1.71c1.72,0,3.32.27,4.8.82s2.79,1.37,3.91,2.47,2,2.48,2.64,4.14.95,3.61.95,5.86v1.97h-22.01v-4.41h18.56l-3.28,1.17c0-1.36-.21-2.54-.62-3.55s-1.03-1.79-1.85-2.34-1.83-.83-3.04-.83-2.25.28-3.11.84-1.5,1.32-1.93,2.29-.66,2.06-.66,3.29v3.12c0,1.52.25,2.79.76,3.82s1.22,1.8,2.13,2.32,1.98.77,3.2.77c.83,0,1.58-.12,2.25-.35s1.25-.58,1.72-1.04.84-1.03,1.09-1.7l6.38,1.2c-.42,1.44-1.16,2.7-2.2,3.79s-2.36,1.93-3.93,2.52-3.38.89-5.43.89Z"/>
    <path class="st0" d="M312.16,295.55v-26.2h6.8v4.57h.28c.48-1.62,1.29-2.85,2.43-3.68s2.43-1.24,3.9-1.24c.36,0,.75.02,1.17.06s.79.1,1.1.18v6.28c-.31-.11-.77-.2-1.36-.26s-1.16-.09-1.69-.09c-1.06,0-2.02.23-2.88.69s-1.53,1.1-2,1.92-.71,1.78-.71,2.87v14.91h-7.03Z"/>
    <path class="st0" d="M339.84,295.55l-9.66-26.2h7.48l4.41,13.59c.53,1.7,1,3.42,1.39,5.16s.81,3.53,1.23,5.39h-1.5c.41-1.86.8-3.66,1.2-5.39s.85-3.45,1.38-5.16l4.36-13.59h7.38l-9.68,26.2h-7.99Z"/>
    <path class="st0" d="M372.21,296.06c-2.67,0-4.98-.55-6.91-1.64s-3.43-2.65-4.46-4.66-1.56-4.41-1.56-7.17.52-5.07,1.55-7.1,2.49-3.62,4.38-4.76,4.11-1.71,6.66-1.71c1.72,0,3.32.27,4.8.82s2.79,1.37,3.91,2.47,2,2.48,2.64,4.14.95,3.61.95,5.86v1.97h-22.01v-4.41h18.56l-3.28,1.17c0-1.36-.21-2.54-.62-3.55s-1.03-1.79-1.85-2.34-1.83-.83-3.04-.83-2.25.28-3.11.84-1.5,1.32-1.93,2.29-.66,2.06-.66,3.29v3.12c0,1.52.25,2.79.76,3.82s1.22,1.8,2.13,2.32,1.98.77,3.2.77c.83,0,1.58-.12,2.25-.35s1.25-.58,1.72-1.04.84-1.03,1.09-1.7l6.38,1.2c-.42,1.44-1.16,2.7-2.2,3.79s-2.36,1.93-3.93,2.52-3.38.89-5.43.89Z"/>
  </g>
</svg>