<?xml version="1.0" encoding="UTF-8"?>
<svg id="Layer_1" data-name="Layer 1" xmlns="http://www.w3.org/2000/svg" viewBox="0 0 185.44 135.23">
  <defs>
    <style>
      .cls-1 {
        fill: #fff;
      }
    </style>
  </defs>
  <g id="_0RkitC.tif" data-name="0RkitC.tif">
    <path class="cls-1" d="M183.38,100.91c-.53,1.83-4.81,1.46-6.13,1.76-.38.09-.32.82-1.04,1.06-23.74,7.72-47.34,15.92-71.23,23.09-6.16,1.85-9,4.81-15.84,2.91-24.35-6.78-49.61-16.41-73.73-24.6-3.24-1.1-8.84-1.96-11.62-3.36-3.11-1.56-1.07-6.89-1.11-9.37-.45-28.03-.22-56.42-.54-84.25-.01-1.21-.08-9.13.79-9.27,15.82,3.61,30.92,9.57,46.02,15.36,12.04,4.62,22.72,8.46,33.56,15.85,4.2,2.86,6.91,7.45,10.75,10.73,4.5-3.23,7.38-7.78,12-10.99,15.94-11.05,34.19-16.27,52.24-22.62,2.07-.73,3.91-1.78,5.29-2.3,6.59-2.48,13.78-4.14,20.58-6.03v102ZM175.89,95.42V8.88c-14.4,4.93-29.1,9.15-43.19,14.96s-23.82,10.54-33.95,21.45c-2.9,3.13-3.72,8.04-8.24,3.26-2.55-2.69-3.86-5.2-6.97-8-8.44-7.61-18.54-12.11-28.97-16.44-14.3-5.95-29.25-10.29-43.92-15.22-.07,1.44-.45,2.76-.53,4.22-1.46,26.64,1.16,54.58,0,81.35-.02.58.03,1.07.52,1.48.25.21,5.32,1.96,6.23,2.26,15.29,5.05,30.85,9.75,46.1,14.79,9.97,3.29,19.79,6.99,29.8,10.17,24.19-7.45,48.11-16.28,72.24-24.14,3.44-1.12,7.82-1.13,10.88-3.59Z"/>
  </g>
  <path class="cls-1" d="M87.03,100.16c-19.55-12.13-40.5-21.73-61.07-32-2.04-1.15-1.83-3.27.53-3.8,3.08-.68,12.64,2.9,16.1,4.14,11.38,4.06,23.76,9.89,33.63,16.78,5.02,3.5,10.45,8.43,10.81,14.89Z"/>
  <path class="cls-1" d="M30.43,39.52c13.41,4.54,48.87,18.1,55.37,31.19.43.87,2.14,4.49,0,4.01-.3-.07-3.99-2.98-4.98-3.51-2.7-1.46-5.58-3.06-8.13-4.45-15.41-8.41-31.63-15.18-47.03-23.73-2.49-1.38-.08-3.97,1.74-4.23,1.11-.16,2.05.39,3.03.72Z"/>
  <path class="cls-1" d="M100.51,99.16c-.1-1.54.24-3.01.8-4.43,4.58-11.65,35.87-24.57,47.52-28.36,1.82-.59,6.14-1.9,7.89-2.06,7.45-.67,4,3.7-.14,5.84-10.87,5.63-22.77,10.05-33.63,15.78-7.66,4.05-14.81,9.15-22.45,13.23Z"/>
  <path class="cls-1" d="M156.61,44.49c-13.47,8.6-29.23,15.18-43.46,23.15-4.24,2.37-8.74,4.15-12.63,7.08.73-9.64,11.6-15.33,19.13-19.54,13.07-7.3,21.78-11.25,36.43-14.4.4-.09,1.98-2.81,4.07-.46,2.29,2.58-1.81,3.06-3.53,4.16Z"/>
</svg>