<?xml version="1.0" encoding="UTF-8"?>
<svg id="Layer_1" data-name="Layer 1" xmlns="http://www.w3.org/2000/svg" viewBox="0 0 404.73 343.01">
  <defs>
    <style>
      .cls-1 {
        font-family: Inter-Bold, Inter;
        font-size: 48px;
        font-variation-settings: 'opsz' 14, 'wght' 700;
        font-weight: 700;
      }

      .cls-1, .cls-2 {
        fill: #c69630;
      }

      .cls-3 {
        letter-spacing: -.02em;
      }

      .cls-4 {
        letter-spacing: -.02em;
      }

      .cls-5 {
        fill: #c2b59b;
      }

      .cls-6 {
        letter-spacing: .02em;
      }
    </style>
  </defs>
  <g>
    <g id="_0RkitC.tif" data-name="0RkitC.tif">
      <path class="cls-2" d="M345.1,180.86c-.82,2.86-7.49,2.28-9.55,2.75-.59.13-.49,1.28-1.62,1.65-36.96,12.02-73.72,24.79-110.9,35.95-9.58,2.88-14.01,7.5-24.66,4.53-37.92-10.56-77.24-25.54-114.79-38.3-5.04-1.71-13.76-3.05-18.09-5.23-4.84-2.44-1.67-10.73-1.73-14.59-.7-43.64-.35-87.84-.84-131.18-.02-1.88-.13-14.21,1.23-14.43,24.62,5.62,48.14,14.9,71.66,23.92,18.75,7.19,35.37,13.18,52.25,24.68,6.54,4.46,10.76,11.6,16.73,16.71,7-5.03,11.49-12.11,18.69-17.11,24.82-17.21,53.23-25.33,81.34-35.21,3.23-1.14,6.08-2.77,8.23-3.58,10.26-3.86,21.45-6.45,32.04-9.38v158.82ZM333.45,172.32V37.58c-22.42,7.68-45.31,14.25-67.24,23.29-21.13,8.71-37.08,16.4-52.85,33.39-4.52,4.87-5.79,12.52-12.83,5.08-3.97-4.19-6.01-8.09-10.85-12.46-13.14-11.85-28.87-18.85-45.11-25.6-22.27-9.26-45.54-16.02-68.38-23.7-.11,2.24-.69,4.3-.82,6.57-2.27,41.47,1.81,84.98,0,126.67-.03.91.05,1.67.81,2.3.4.33,8.28,3.05,9.7,3.51,23.8,7.86,48.03,15.18,71.77,23.03,15.52,5.13,30.81,10.89,46.39,15.84,37.66-11.61,74.91-25.34,112.48-37.58,5.36-1.75,12.18-1.77,16.94-5.59Z"/>
    </g>
    <path class="cls-5" d="M195.08,179.7c-30.43-18.89-63.07-33.84-95.08-49.83-3.18-1.79-2.85-5.1.83-5.91,4.8-1.07,19.68,4.52,25.07,6.44,17.71,6.32,37,15.41,52.36,26.12,7.81,5.45,16.26,13.12,16.82,23.18Z"/>
    <path class="cls-5" d="M106.96,85.28c20.89,7.07,76.09,28.19,86.22,48.57.67,1.36,3.33,6.99-.01,6.24-.46-.1-6.22-4.64-7.75-5.46-4.21-2.27-8.68-4.77-12.66-6.94-23.99-13.09-49.25-23.63-73.22-36.95-3.87-2.15-.13-6.18,2.71-6.58,1.73-.25,3.19.61,4.72,1.13Z"/>
    <path class="cls-5" d="M216.09,178.15c-.16-2.4.38-4.68,1.25-6.9,7.13-18.14,55.85-38.26,73.99-44.16,2.84-.92,9.56-2.97,12.28-3.21,11.61-1.05,6.24,5.76-.21,9.1-16.93,8.77-35.45,15.64-52.36,24.57-11.93,6.3-23.05,14.24-34.95,20.59Z"/>
    <path class="cls-5" d="M303.42,93.02c-20.98,13.4-45.51,23.63-67.68,36.05-6.6,3.7-13.61,6.46-19.66,11.02,1.14-15.01,18.06-23.87,29.78-30.42,20.34-11.37,33.91-17.52,56.72-22.41.62-.13,3.08-4.38,6.34-.71,3.57,4.02-2.82,4.76-5.5,6.47Z"/>
  </g>
  <text class="cls-1" transform="translate(12.88 295.51)"><tspan x="0" y="0">P</tspan><tspan class="cls-3" x="31.1" y="0">r</tspan><tspan x="49.48" y="0">ep &amp; P</tspan><tspan class="cls-3" x="194.41" y="0">r</tspan><tspan x="212.79" y="0">ese</tspan><tspan class="cls-6" x="296.86" y="0">r</tspan><tspan class="cls-4" x="317.16" y="0">v</tspan><tspan x="345.07" y="0">e</tspan></text>
</svg>