<?xml version="1.0" encoding="UTF-8"?>
<svg id="Layer_1" data-name="Layer 1" xmlns="http://www.w3.org/2000/svg" viewBox="0 0 519.35 88.84">
  <defs>
    <style>
      .cls-1 {
        font-family: Inter-Bold, Inter;
        font-size: 48px;
        font-variation-settings: 'opsz' 14, 'wght' 700;
        font-weight: 700;
      }

      .cls-1, .cls-2 {
        fill: #c69630;
      }

      .cls-3 {
        letter-spacing: -.02em;
      }

      .cls-4 {
        letter-spacing: -.02em;
      }

      .cls-5 {
        fill: #c2b59b;
      }

      .cls-6 {
        letter-spacing: .02em;
      }
    </style>
  </defs>
  <g>
    <g id="_0RkitC.tif" data-name="0RkitC.tif">
      <path class="cls-2" d="M120.82,65.38c-.31,1.09-2.85.87-3.64,1.05-.22.05-.19.49-.62.63-14.08,4.58-28.09,9.44-42.25,13.7-3.65,1.1-5.34,2.86-9.4,1.73-14.45-4.02-29.43-9.73-43.74-14.59-1.92-.65-5.24-1.16-6.89-1.99-1.84-.93-.64-4.09-.66-5.56-.27-16.63-.13-33.47-.32-49.98,0-.72-.05-5.41.47-5.5,9.38,2.14,18.34,5.68,27.3,9.11,7.15,2.74,13.48,5.02,19.91,9.4,2.49,1.7,4.1,4.42,6.38,6.37,2.67-1.92,4.38-4.62,7.12-6.52,9.46-6.56,20.28-9.65,30.99-13.42,1.23-.43,2.32-1.06,3.14-1.36,3.91-1.47,8.17-2.46,12.21-3.58v60.51ZM116.38,62.12V10.79c-8.54,2.93-17.26,5.43-25.62,8.87-8.05,3.32-14.13,6.25-20.14,12.72-1.72,1.85-2.21,4.77-4.89,1.93-1.51-1.6-2.29-3.08-4.13-4.75-5.01-4.51-11-7.18-17.19-9.76-8.49-3.53-17.35-6.1-26.05-9.03-.04.85-.26,1.64-.31,2.5-.86,15.8.69,32.38,0,48.26,0,.35.02.64.31.88.15.13,3.16,1.16,3.69,1.34,9.07,3,18.3,5.78,27.35,8.78,5.91,1.95,11.74,4.15,17.68,6.03,14.35-4.42,28.54-9.66,42.85-14.32,2.04-.67,4.64-.67,6.46-2.13Z"/>
    </g>
    <path class="cls-5" d="M63.67,64.93c-11.6-7.2-24.03-12.89-36.23-18.98-1.21-.68-1.09-1.94.31-2.25,1.83-.41,7.5,1.72,9.55,2.45,6.75,2.41,14.1,5.87,19.95,9.95,2.98,2.08,6.2,5,6.41,8.83Z"/>
    <path class="cls-5" d="M30.09,28.96c7.96,2.69,28.99,10.74,32.85,18.51.26.52,1.27,2.66,0,2.38-.18-.04-2.37-1.77-2.95-2.08-1.6-.86-3.31-1.82-4.82-2.64-9.14-4.99-18.76-9-27.9-14.08-1.48-.82-.05-2.35,1.03-2.51.66-.09,1.22.23,1.8.43Z"/>
    <path class="cls-5" d="M71.67,64.34c-.06-.92.14-1.78.48-2.63,2.72-6.91,21.28-14.58,28.19-16.82,1.08-.35,3.64-1.13,4.68-1.22,4.42-.4,2.38,2.19-.08,3.47-6.45,3.34-13.51,5.96-19.95,9.36-4.54,2.4-8.78,5.43-13.32,7.85Z"/>
    <path class="cls-5" d="M104.94,31.91c-7.99,5.1-17.34,9-25.78,13.73-2.51,1.41-5.19,2.46-7.49,4.2.43-5.72,6.88-9.1,11.35-11.59,7.75-4.33,12.92-6.68,21.61-8.54.24-.05,1.17-1.67,2.41-.27,1.36,1.53-1.07,1.81-2.1,2.47Z"/>
  </g>
  <text class="cls-1" transform="translate(137.02 59.62)"><tspan x="0" y="0">P</tspan><tspan class="cls-3" x="31.1" y="0">r</tspan><tspan x="49.48" y="0">ep &amp; P</tspan><tspan class="cls-3" x="194.41" y="0">r</tspan><tspan x="212.79" y="0">ese</tspan><tspan class="cls-6" x="296.86" y="0">r</tspan><tspan class="cls-4" x="317.16" y="0">v</tspan><tspan x="345.07" y="0">e</tspan></text>
</svg>